<svg version="1.1" id="Layer_1" xmlns="http://www.w3.org/2000/svg" xmlns:xlink="http://www.w3.org/1999/xlink" x="0px" y="0px"
	 width="100%" viewBox="0 0 840 540" enable-background="new 0 0 840 540" xml:space="preserve">
<path fill="#000000" opacity="1.000000" stroke="none" 
	d="
M512.000000,541.000000 
	C341.333344,541.000000 171.166672,541.000000 1.000000,541.000000 
	C1.000000,361.000000 1.000000,181.000000 1.000000,1.000000 
	C281.000000,1.000000 561.000000,1.000000 841.000000,1.000000 
	C841.000000,181.000000 841.000000,361.000000 841.000000,541.000000 
	C731.500000,541.000000 622.000000,541.000000 512.000000,541.000000 
M61.011971,301.927979 
	C61.011971,361.572174 61.011971,421.216370 61.011971,480.833405 
	C81.436081,480.833405 101.217957,480.833405 121.927704,480.975006 
	C141.618530,480.927795 161.309357,480.880615 181.927444,480.988007 
	C201.618240,480.936462 221.309021,480.884918 241.927673,480.975006 
	C261.618500,480.927826 281.309357,480.880615 301.927429,480.988007 
	C420.457184,480.992004 538.986938,480.996490 657.516724,480.993103 
	C658.677734,480.993073 659.838806,480.888947 661.927612,480.975037 
	C681.618469,480.927826 701.309326,480.880615 721.927368,480.988007 
	C741.505310,480.988007 761.083191,480.988007 781.000000,480.988007 
	C781.000000,478.924957 781.000000,477.298798 781.000000,475.672638 
	C781.000000,434.746368 781.015991,393.820099 780.992371,352.893829 
	C780.982361,335.595917 780.888916,318.298065 780.975037,300.072296 
	C780.927856,260.381470 780.880615,220.690643 780.988037,180.072586 
	C780.988037,140.492584 780.988037,100.912590 780.988037,61.000000 
	C779.090027,61.000000 777.623047,61.000000 776.156067,61.000000 
	C639.265259,61.000000 502.374481,60.999466 365.483704,61.006897 
	C363.989197,61.006981 362.494690,61.111050 360.072937,61.031837 
	C340.372406,61.075680 320.671906,61.119526 300.046814,61.024498 
	C254.333771,61.016331 208.620743,60.995113 162.907700,61.007843 
	C148.947952,61.011730 134.988220,61.108921 120.096191,61.031261 
	C100.507484,61.031261 80.918777,61.031261 61.000042,61.031261 
	C61.000042,63.316982 61.000038,64.957924 61.000038,66.598869 
	C61.000053,143.236603 60.999115,219.874344 61.007004,296.512085 
	C61.007160,298.008148 61.111019,299.504242 61.011971,301.927979 
z"/>
<path fill="#E49D23" opacity="1.000000" stroke="none" 
	d="
M181.000183,480.833405 
	C161.309357,480.880615 141.618530,480.927795 121.463821,480.446259 
	C120.982178,420.302490 120.964417,360.687469 120.958916,300.599365 
	C120.995789,260.394073 121.020393,220.661850 121.281448,180.942581 
	C121.517899,180.955536 121.976074,180.833344 122.441963,180.900726 
	C141.944122,180.923187 160.980377,180.878265 180.271851,180.903503 
	C180.701630,180.999329 180.876205,181.024994 181.029633,181.029556 
	C181.008469,181.008438 180.966171,180.966171 180.976883,181.436890 
	C180.992203,199.859238 181.113693,217.812149 180.914307,235.761520 
	C180.867920,239.935410 182.181931,241.134842 186.289749,241.083130 
	C202.576599,240.878021 218.869583,240.859238 235.155716,241.091339 
	C239.602020,241.154709 241.175095,240.036224 241.108139,235.317917 
	C240.851120,217.203964 241.022369,199.083939 241.013733,180.986267 
	C240.993652,181.006348 240.953461,181.046539 241.425034,181.027679 
	C261.582428,180.982651 281.268250,180.956451 300.964630,181.403168 
	C300.983673,219.464554 301.081299,257.053436 300.896149,294.640930 
	C300.870941,299.758698 302.501709,301.187103 307.475037,301.100830 
	C323.270752,300.826782 339.076752,300.839569 354.873108,301.094543 
	C359.723938,301.172791 361.143921,299.534760 361.091095,294.791443 
	C360.891113,276.831818 361.056213,258.868073 361.546631,240.944336 
	C481.576508,240.982803 601.144470,240.982803 721.102295,240.982803 
	C721.102295,220.695374 721.102295,201.097534 721.102295,180.999817 
	C741.270752,180.999817 761.052063,180.999817 780.833374,180.999817 
	C780.880615,220.690643 780.927856,260.381470 780.446289,300.536194 
	C760.366089,301.000092 740.814636,301.000092 721.000183,301.000092 
	C721.000183,361.429230 721.000183,421.131317 721.000183,480.833435 
	C701.309326,480.880615 681.618469,480.927826 661.463745,480.446259 
	C660.999878,460.344086 660.999878,440.770691 660.999878,421.250061 
	C540.637329,421.250061 421.067902,421.250061 301.000183,421.250061 
	C301.000183,441.275116 301.000183,461.054260 301.000183,480.833405 
	C281.309357,480.880615 261.618500,480.927826 241.463806,480.446228 
	C240.999924,460.351929 240.999924,440.786407 240.999924,421.261810 
	C220.643661,421.261810 201.058243,421.261810 181.000183,421.261810 
	C181.000183,441.291046 181.000183,461.062225 181.000183,480.833405 
z"/>
<path fill="#FFFFFF" opacity="1.000000" stroke="none" 
	d="
M780.910706,180.536194 
	C761.052063,180.999817 741.270752,180.999817 721.102295,180.999817 
	C721.102295,201.097534 721.102295,220.695374 721.102295,240.982803 
	C601.144470,240.982803 481.576508,240.982803 361.510406,240.481537 
	C361.008209,180.375687 361.004211,120.771133 361.000183,61.166573 
	C362.494690,61.111050 363.989197,61.006981 365.483704,61.006897 
	C502.374481,60.999466 639.265259,61.000000 776.156067,61.000000 
	C777.623047,61.000000 779.090027,61.000000 780.988037,61.000000 
	C780.988037,100.912590 780.988037,140.492584 780.910706,180.536194 
z"/>
<path fill="#FFFFFF" opacity="1.000000" stroke="none" 
	d="
M301.463806,480.910706 
	C301.000183,461.054260 301.000183,441.275116 301.000183,421.250061 
	C421.067902,421.250061 540.637329,421.250061 660.999878,421.250061 
	C660.999878,440.770691 660.999878,460.344086 660.999878,480.375427 
	C659.838806,480.888947 658.677734,480.993073 657.516724,480.993103 
	C538.986938,480.996490 420.457184,480.992004 301.463806,480.910706 
z"/>
<path fill="#E49D23" opacity="1.000000" stroke="none" 
	d="
M121.028481,61.163383 
	C134.988220,61.108921 148.947952,61.011730 162.907700,61.007843 
	C208.620743,60.995113 254.333771,61.016331 300.515381,61.552082 
	C300.973999,81.743027 300.964020,101.406380 300.490082,121.041603 
	C280.455933,121.013466 260.885773,121.013466 240.953461,121.013466 
	C240.953461,141.475830 240.953461,161.261185 240.953461,181.046539 
	C240.953461,181.046539 240.993652,181.006348 240.542999,180.996979 
	C220.383636,180.980469 200.674896,180.973328 180.966171,180.966171 
	C180.966171,180.966171 181.008469,181.008438 180.990784,180.769440 
	C180.926498,180.361450 180.879929,180.192444 180.900726,179.557587 
	C180.978653,166.474777 181.092117,153.856689 180.953674,141.241364 
	C180.890335,135.469482 180.453140,129.690979 179.884613,123.945244 
	C179.781815,122.906281 178.301300,121.300385 177.310989,121.182625 
	C174.175507,120.809792 170.970825,120.995842 167.793030,121.005531 
	C152.523056,121.052078 137.253113,121.111694 121.752480,121.105522 
	C121.521790,121.044380 121.045174,121.070244 121.034790,120.597282 
	C121.025757,100.470673 121.027122,80.817032 121.028481,61.163383 
z"/>
<path fill="#CC730E" opacity="1.000000" stroke="none" 
	d="
M300.954071,121.069740 
	C300.964020,101.406380 300.973999,81.743027 300.977661,61.621517 
	C320.671906,61.119526 340.372406,61.075680 360.536560,61.099205 
	C361.004211,120.771133 361.008209,180.375687 361.048462,240.443069 
	C361.056213,258.868073 360.891113,276.831818 361.091095,294.791443 
	C361.143921,299.534760 359.723938,301.172791 354.873108,301.094543 
	C339.076752,300.839569 323.270752,300.826782 307.475037,301.100830 
	C302.501709,301.187103 300.870941,299.758698 300.896149,294.640930 
	C301.081299,257.053436 300.983673,219.464554 300.982300,180.938461 
	C300.977631,160.357132 300.965851,140.713440 300.954071,121.069740 
z"/>
<path fill="#CC730E" opacity="1.000000" stroke="none" 
	d="
M120.562332,61.097321 
	C121.027122,80.817032 121.025757,100.470673 121.036758,120.826813 
	C121.049110,121.529297 121.166656,121.972649 121.103882,122.439308 
	C121.082962,141.944702 121.124809,160.983429 121.107925,180.245224 
	C121.049202,180.468292 121.045006,180.929626 121.045006,180.929626 
	C121.020393,220.661850 120.995789,260.394073 120.495972,300.568542 
	C100.402672,301.007294 80.784584,301.003815 61.166492,301.000305 
	C61.111019,299.504242 61.007160,298.008148 61.007004,296.512085 
	C60.999115,219.874344 61.000053,143.236603 61.000038,66.598869 
	C61.000038,64.957924 61.000042,63.316982 61.000042,61.031261 
	C80.918777,61.031261 100.507484,61.031261 120.562332,61.097321 
z"/>
<path fill="#FFFFFF" opacity="1.000000" stroke="none" 
	d="
M61.089233,301.464142 
	C80.784584,301.003815 100.402672,301.007294 120.483711,301.041626 
	C120.964417,360.687469 120.982178,420.302490 120.999878,480.375458 
	C101.217957,480.833405 81.436081,480.833405 61.011971,480.833405 
	C61.011971,421.216370 61.011971,361.572174 61.089233,301.464142 
z"/>
<path fill="#FFFFFF" opacity="1.000000" stroke="none" 
	d="
M721.463745,480.910706 
	C721.000183,421.131317 721.000183,361.429230 721.000183,301.000092 
	C740.814636,301.000092 760.366089,301.000092 780.375488,301.000122 
	C780.888916,318.298065 780.982361,335.595917 780.992371,352.893829 
	C781.015991,393.820099 781.000000,434.746368 781.000000,475.672638 
	C781.000000,477.298798 781.000000,478.924957 781.000000,480.988007 
	C761.083191,480.988007 741.505310,480.988007 721.463745,480.910706 
z"/>
<path fill="#FFFFFF" opacity="1.000000" stroke="none" 
	d="
M181.463806,480.910706 
	C181.000183,461.062225 181.000183,441.291046 181.000183,421.261810 
	C201.058243,421.261810 220.643661,421.261810 240.999924,421.261810 
	C240.999924,440.786407 240.999924,460.351929 240.999878,480.375427 
	C221.309021,480.884918 201.618240,480.936462 181.463806,480.910706 
z"/>
<path fill="#231815" opacity="1.000000" stroke="none" 
	d="
M300.490082,121.041603 
	C300.965851,140.713440 300.977631,160.357132 300.971741,180.465546 
	C281.268250,180.956451 261.582428,180.982651 241.425034,181.027679 
	C240.953461,161.261185 240.953461,141.475830 240.953461,121.013466 
	C260.885773,121.013466 280.455933,121.013466 300.490082,121.041603 
z"/>
<path fill="#824C10" opacity="1.000000" stroke="none" 
	d="
M180.976883,181.436890 
	C200.674896,180.973328 220.383636,180.980469 240.563095,180.976898 
	C241.022369,199.083939 240.851120,217.203964 241.108139,235.317917 
	C241.175095,240.036224 239.602020,241.154709 235.155716,241.091339 
	C218.869583,240.859238 202.576599,240.878021 186.289749,241.083130 
	C182.181931,241.134842 180.867920,239.935410 180.914307,235.761520 
	C181.113693,217.812149 180.992203,199.859238 180.976883,181.436890 
z"/>
<path fill="#231815" opacity="1.000000" stroke="none" 
	d="
M121.166656,180.022156 
	C121.124809,160.983429 121.082962,141.944702 121.252182,122.317719 
	C121.653816,121.557816 121.827126,121.370216 121.983170,121.166664 
	C137.253113,121.111694 152.523056,121.052078 167.793030,121.005531 
	C170.970825,120.995842 174.175507,120.809792 177.310989,121.182625 
	C178.301300,121.300385 179.781815,122.906281 179.884613,123.945244 
	C180.453140,129.690979 180.890335,135.469482 180.953674,141.241364 
	C181.092117,153.856689 180.978653,166.474777 180.751617,179.679062 
	C180.343903,180.438522 180.171066,180.627518 180.016647,180.833344 
	C160.980377,180.878265 141.944122,180.923187 122.319801,180.753174 
	C121.559349,180.348755 121.370979,180.176727 121.166656,180.022156 
z"/>
<path fill="#231815" opacity="1.000000" stroke="none" 
	d="
M121.107925,180.245224 
	C121.370979,180.176727 121.559349,180.348755 121.853912,180.685791 
	C121.976074,180.833344 121.517899,180.955536 121.281448,180.942581 
	C121.045006,180.929626 121.049202,180.468292 121.107925,180.245224 
z"/>
<path fill="#231815" opacity="1.000000" stroke="none" 
	d="
M180.271851,180.903503 
	C180.171066,180.627518 180.343903,180.438522 180.684235,180.144913 
	C180.879929,180.192444 180.926498,180.361450 181.011932,180.790558 
	C180.876205,181.024994 180.701630,180.999329 180.271851,180.903503 
z"/>
<path fill="#231815" opacity="1.000000" stroke="none" 
	d="
M121.752480,121.105522 
	C121.827126,121.370216 121.653816,121.557816 121.314949,121.851059 
	C121.166656,121.972649 121.049110,121.529297 121.047142,121.299774 
	C121.045174,121.070244 121.521790,121.044380 121.752480,121.105522 
z"/>
</svg>