<svg version="1.1" id="Layer_1" xmlns="http://www.w3.org/2000/svg" xmlns:xlink="http://www.w3.org/1999/xlink" x="0px" y="0px"
	 width="100%" viewBox="0 0 900 540" enable-background="new 0 0 900 540" xml:space="preserve">
<path fill="#000000" opacity="1.000000" stroke="none" 
	d="
M559.000000,541.000000 
	C372.666656,541.000000 186.833328,541.000000 1.000000,541.000000 
	C1.000000,361.000000 1.000000,181.000000 1.000000,1.000000 
	C301.000000,1.000000 601.000000,1.000000 901.000000,1.000000 
	C901.000000,181.000000 901.000000,361.000000 901.000000,541.000000 
	C787.166687,541.000000 673.333313,541.000000 559.000000,541.000000 
M61.043488,121.905678 
	C61.078537,141.612091 61.113586,161.318497 61.010628,181.950058 
	C61.010628,281.591827 61.010628,381.233612 61.010628,480.833649 
	C101.445770,480.833649 141.222473,480.833649 181.927109,480.975128 
	C201.618332,480.927948 221.309570,480.880798 241.928528,480.988068 
	C261.618744,480.936584 281.308960,480.885132 301.927124,480.975128 
	C321.618347,480.927979 341.309601,480.880829 361.928558,480.988068 
	C480.457733,480.992035 598.986938,480.996490 717.516113,480.993073 
	C718.677124,480.993011 719.838196,480.889069 721.927124,480.975128 
	C741.618347,480.927948 761.309570,480.880798 781.928467,480.988068 
	C801.506287,480.988068 821.084045,480.988068 841.000000,480.988068 
	C841.000000,478.925110 841.000000,477.298950 841.000000,475.672791 
	C841.000000,434.746643 841.016052,393.820496 840.992432,352.894348 
	C840.982422,335.596466 840.889099,318.298676 840.975159,300.072876 
	C840.928040,260.381653 840.880859,220.690414 840.988037,180.071472 
	C840.988037,140.491608 840.988037,100.911743 840.988037,61.000000 
	C839.080627,61.000000 837.618408,61.000000 836.156189,61.000000 
	C699.265625,61.000000 562.375061,60.999474 425.484467,61.006886 
	C423.989929,61.006969 422.495422,61.110798 420.073914,61.031448 
	C380.372742,61.075382 340.671570,61.119320 300.045990,61.024391 
	C260.363739,61.071712 220.681473,61.119034 180.071472,61.011936 
	C140.422623,61.011936 100.773781,61.011936 61.148674,61.011936 
	C61.148674,81.436081 61.148674,101.205612 61.043488,121.905678 
z"/>
<path fill="#E49D23" opacity="1.000000" stroke="none" 
	d="
M781.000793,480.833649 
	C761.309570,480.880798 741.618347,480.927948 721.463379,480.446594 
	C720.999695,460.344208 720.999695,440.770325 720.999695,421.249451 
	C600.638611,421.249451 481.067413,421.249451 361.000824,421.249451 
	C361.000824,441.274414 361.000824,461.054047 361.000824,480.833649 
	C341.309601,480.880829 321.618347,480.927979 301.463379,480.446594 
	C300.999664,460.351715 300.999664,440.785339 300.999664,421.260620 
	C280.644348,421.260620 261.057861,421.260620 241.000793,421.260620 
	C241.000793,441.289551 241.000793,461.061615 241.000793,480.833649 
	C221.309570,480.880798 201.618332,480.927948 181.463394,480.446594 
	C180.999680,400.419037 180.999680,320.920013 180.999680,240.882477 
	C160.731903,240.882477 141.029160,240.882477 120.865768,240.882477 
	C120.865768,220.566833 120.865768,200.789078 120.912292,180.545166 
	C120.972298,162.227753 121.011307,144.376389 120.954559,126.525337 
	C120.949608,124.967140 120.315094,123.410950 120.235092,121.513885 
	C140.538193,121.173935 160.579193,121.173935 180.999207,121.173935 
	C180.999207,100.651039 180.999207,80.908691 180.999207,61.166351 
	C220.681473,61.119034 260.363739,61.071712 300.515472,61.551876 
	C300.976532,81.744156 300.968109,101.408951 300.495209,121.043961 
	C280.477417,121.014175 260.924072,121.014175 241.341156,121.014175 
	C241.341156,141.315430 241.341156,160.995209 241.341156,180.673981 
	C242.150360,180.813232 242.627380,180.967163 243.104385,180.967041 
	C262.389465,180.962128 281.674530,180.943329 300.969788,181.399475 
	C300.986816,219.679306 301.050293,257.486145 300.921600,295.292328 
	C300.907135,299.542328 301.984985,301.110107 306.505005,301.089935 
	C342.812042,300.927734 379.120392,300.931458 415.427460,301.086914 
	C419.859711,301.105865 421.129822,299.703156 421.086700,295.359314 
	C420.906555,277.207916 421.053253,259.053284 421.542206,240.940826 
	C541.574829,240.981796 661.145447,240.981796 781.103394,240.981796 
	C781.103394,220.694824 781.103394,201.096207 781.103394,180.999191 
	C801.269958,180.999191 821.051819,180.999191 840.833679,180.999191 
	C840.880859,220.690414 840.928040,260.381653 840.446655,300.536621 
	C820.366211,301.000336 800.814331,301.000336 781.000793,301.000336 
	C781.000793,361.427429 781.000793,421.130524 781.000793,480.833649 
z"/>
<path fill="#FFFFFF" opacity="1.000000" stroke="none" 
	d="
M840.910889,180.535339 
	C821.051819,180.999191 801.269958,180.999191 781.103394,180.999191 
	C781.103394,201.096207 781.103394,220.694824 781.103394,240.981796 
	C661.145447,240.981796 541.574829,240.981796 421.507874,240.478607 
	C421.007935,180.372345 421.004395,120.769272 421.000885,61.166199 
	C422.495422,61.110798 423.989929,61.006969 425.484467,61.006886 
	C562.375061,60.999474 699.265625,61.000000 836.156189,61.000000 
	C837.618408,61.000000 839.080627,61.000000 840.988037,61.000000 
	C840.988037,100.911743 840.988037,140.491608 840.910889,180.535339 
z"/>
<path fill="#FFFFFF" opacity="1.000000" stroke="none" 
	d="
M120.865768,181.011322 
	C120.865768,200.789078 120.865768,220.566833 120.865768,240.882477 
	C141.029160,240.882477 160.731903,240.882477 180.999680,240.882477 
	C180.999680,320.920013 180.999680,400.419037 180.999420,480.375854 
	C141.222473,480.833649 101.445770,480.833649 61.010628,480.833649 
	C61.010628,381.233612 61.010628,281.591827 61.536655,181.476685 
	C81.663712,181.005997 101.264740,181.008652 120.865768,181.011322 
z"/>
<path fill="#CC730E" opacity="1.000000" stroke="none" 
	d="
M420.537415,61.098824 
	C421.004395,120.769272 421.007935,180.372345 421.045837,240.437622 
	C421.053253,259.053284 420.906555,277.207916 421.086700,295.359314 
	C421.129822,299.703156 419.859711,301.105865 415.427460,301.086914 
	C379.120392,300.931458 342.812042,300.927734 306.505005,301.089935 
	C301.984985,301.110107 300.907135,299.542328 300.921600,295.292328 
	C301.050293,257.486145 300.986816,219.679306 300.985443,180.935226 
	C300.980499,160.356445 300.970093,140.715103 300.959656,121.073746 
	C300.968109,101.408951 300.976532,81.744156 300.977661,61.621307 
	C340.671570,61.119320 380.372742,61.075382 420.537415,61.098824 
z"/>
<path fill="#FFFFFF" opacity="1.000000" stroke="none" 
	d="
M361.464691,480.910858 
	C361.000824,461.054047 361.000824,441.274414 361.000824,421.249451 
	C481.067413,421.249451 600.638611,421.249451 720.999695,421.249451 
	C720.999695,440.770325 720.999695,460.344208 720.999451,480.375854 
	C719.838196,480.889069 718.677124,480.993011 717.516113,480.993073 
	C598.986938,480.996490 480.457733,480.992035 361.464691,480.910858 
z"/>
<path fill="#FFFFFF" opacity="1.000000" stroke="none" 
	d="
M781.464600,480.910858 
	C781.000793,421.130524 781.000793,361.427429 781.000793,301.000336 
	C800.814331,301.000336 820.366211,301.000336 840.375854,301.000580 
	C840.889099,318.298676 840.982422,335.596466 840.992432,352.894348 
	C841.016052,393.820496 841.000000,434.746643 841.000000,475.672791 
	C841.000000,477.298950 841.000000,478.925110 841.000000,480.988068 
	C821.084045,480.988068 801.506287,480.988068 781.464600,480.910858 
z"/>
<path fill="#FFFFFF" opacity="1.000000" stroke="none" 
	d="
M180.535339,61.089142 
	C180.999207,80.908691 180.999207,100.651039 180.999207,121.173935 
	C160.579193,121.173935 140.538193,121.173935 119.854645,121.439240 
	C115.149292,121.469696 111.087502,121.055321 107.023468,121.031952 
	C91.732269,120.944008 76.440331,120.983437 61.148674,120.975151 
	C61.148674,101.205612 61.148674,81.436081 61.148674,61.011936 
	C100.773781,61.011936 140.422623,61.011936 180.535339,61.089142 
z"/>
<path fill="#FFFFFF" opacity="1.000000" stroke="none" 
	d="
M241.464661,480.910858 
	C241.000793,461.061615 241.000793,441.289551 241.000793,421.260620 
	C261.057861,421.260620 280.644348,421.260620 300.999664,421.260620 
	C300.999664,440.785339 300.999664,460.351715 300.999420,480.375854 
	C281.308960,480.885132 261.618744,480.936584 241.464661,480.910858 
z"/>
<path fill="#824C10" opacity="1.000000" stroke="none" 
	d="
M61.096081,121.440414 
	C76.440331,120.983437 91.732269,120.944008 107.023468,121.031952 
	C111.087502,121.055321 115.149292,121.469696 119.592560,121.779190 
	C120.315094,123.410950 120.949608,124.967140 120.954559,126.525337 
	C121.011307,144.376389 120.972298,162.227753 120.912292,180.545166 
	C101.264740,181.008652 81.663712,181.005997 61.605659,181.014114 
	C61.113586,161.318497 61.078537,141.612091 61.096081,121.440414 
M65.543388,126.145477 
	C65.378670,142.078781 65.136864,158.012543 65.228897,173.944366 
	C65.234810,174.967468 67.808464,176.836884 69.209457,176.857895 
	C83.670700,177.074936 98.136742,176.941772 112.600670,177.032318 
	C115.789085,177.052292 117.052948,175.865952 117.032433,172.641312 
	C116.940407,158.177429 116.937737,143.712265 117.031822,129.248398 
	C117.053436,125.925919 115.584122,124.892387 112.489716,124.969948 
	C107.338982,125.099060 102.181847,124.944870 97.028732,125.012039 
	C86.745110,125.146088 76.462402,125.349319 65.543388,126.145477 
z"/>
<path fill="#231815" opacity="1.000000" stroke="none" 
	d="
M300.495239,121.043961 
	C300.970093,140.715103 300.980499,160.356445 300.975281,180.462051 
	C281.674530,180.943329 262.389465,180.962128 243.104385,180.967041 
	C242.627380,180.967163 242.150360,180.813232 241.341156,180.673981 
	C241.341156,160.995209 241.341156,141.315430 241.341156,121.014175 
	C260.924072,121.014175 280.477417,121.014175 300.495239,121.043961 
z"/>
<path fill="#824C10" opacity="1.000000" stroke="none" 
	d="
M65.861351,125.834732 
	C76.462402,125.349319 86.745110,125.146088 97.028732,125.012039 
	C102.181847,124.944870 107.338982,125.099060 112.489716,124.969948 
	C115.584122,124.892387 117.053436,125.925919 117.031822,129.248398 
	C116.937737,143.712265 116.940407,158.177429 117.032433,172.641312 
	C117.052948,175.865952 115.789085,177.052292 112.600670,177.032318 
	C98.136742,176.941772 83.670700,177.074936 69.209457,176.857895 
	C67.808464,176.836884 65.234810,174.967468 65.228897,173.944366 
	C65.136864,158.012543 65.378670,142.078781 65.861351,125.834732 
z"/>
</svg>