<svg id="svg" version="1.1" xmlns="http://www.w3.org/2000/svg" xmlns:xlink="http://www.w3.org/1999/xlink" width="400" height="400" viewBox="0, 0, 400,400"><g id="svgg"><path id="path0" d="M200.098 79.900 L 200.200 120.200 219.900 120.304 L 239.600 120.408 239.600 140.404 L 239.600 160.400 259.600 160.400 L 279.600 160.400 279.600 200.000 L 279.600 239.600 259.600 239.600 L 239.600 239.600 239.600 259.596 L 239.600 279.592 219.900 279.696 L 200.200 279.800 200.200 320.000 L 200.200 360.200 240.300 360.302 L 280.400 360.404 280.400 340.402 L 280.400 320.400 300.400 320.400 L 320.400 320.400 320.400 300.400 L 320.400 280.400 340.400 280.400 L 360.400 280.400 360.400 200.000 L 360.400 119.600 340.400 119.600 L 320.400 119.600 320.400 99.600 L 320.400 79.600 300.400 79.600 L 280.400 79.600 280.400 59.600 L 280.400 39.600 240.198 39.600 L 199.996 39.600 200.098 79.900 " stroke="none" fill="#b4641c" fill-rule="evenodd"></path><path id="path1" d="M119.600 59.600 L 119.600 79.600 99.600 79.600 L 79.600 79.600 79.600 99.600 L 79.600 119.600 59.600 119.600 L 39.600 119.600 39.600 159.800 L 39.600 200.000 59.800 200.000 L 80.000 200.000 80.000 220.000 L 80.000 240.000 59.800 240.000 L 39.600 240.000 39.600 260.200 L 39.600 280.400 59.600 280.400 L 79.600 280.400 79.600 300.400 L 79.600 320.400 99.600 320.400 L 119.600 320.400 119.600 340.400 L 119.600 360.400 159.800 360.400 L 200.000 360.400 200.000 320.000 L 200.000 279.600 180.200 279.600 L 160.400 279.600 160.400 259.600 L 160.400 239.600 140.400 239.600 L 120.400 239.600 120.400 200.000 L 120.400 160.400 140.400 160.400 L 160.400 160.400 160.400 140.400 L 160.400 120.400 180.200 120.400 L 200.000 120.400 200.000 100.200 L 200.000 80.000 180.000 80.000 L 160.000 80.000 160.000 59.800 L 160.000 39.600 139.800 39.600 L 119.600 39.600 119.600 59.600 M120.000 140.000 L 120.000 160.000 100.000 160.000 L 80.000 160.000 80.000 140.000 L 80.000 120.000 100.000 120.000 L 120.000 120.000 120.000 140.000 M160.000 300.000 L 160.000 320.000 140.000 320.000 L 120.000 320.000 120.000 300.000 L 120.000 280.000 140.000 280.000 L 160.000 280.000 160.000 300.000 " stroke="none" fill="#f474ac" fill-rule="evenodd"></path><path id="path2" d="M80.000 140.000 L 80.000 160.000 100.000 160.000 L 120.000 160.000 120.000 140.000 L 120.000 120.000 100.000 120.000 L 80.000 120.000 80.000 140.000 M120.000 300.000 L 120.000 320.000 140.000 320.000 L 160.000 320.000 160.000 300.000 L 160.000 280.000 140.000 280.000 L 120.000 280.000 120.000 300.000 " stroke="none" fill="#e41c84" fill-rule="evenodd"></path><path id="path3" d="M160.000 59.800 L 160.000 80.000 180.000 80.000 L 200.000 80.000 200.000 59.800 L 200.000 39.600 180.000 39.600 L 160.000 39.600 160.000 59.800 M39.600 220.000 L 39.600 240.000 59.800 240.000 L 80.000 240.000 80.000 220.000 L 80.000 200.000 59.800 200.000 L 39.600 200.000 39.600 220.000 " stroke="none" fill="#74bc24" fill-rule="evenodd"></path><path id="path4" d="" stroke="none" fill="#d85440" fill-rule="evenodd"></path></g></svg>