<svg id="svg" version="1.1" xmlns="http://www.w3.org/2000/svg" xmlns:xlink="http://www.w3.org/1999/xlink" width="400" height="509.0909090909091" viewBox="0, 0, 400,509.0909090909091"><g id="svgg"><path id="path0" d="M72.899 254.500 C 72.953 354.435,73.043 411.675,73.100 381.700 L 73.203 327.200 200.000 327.200 L 326.797 327.200 326.900 381.700 C 326.957 411.675,327.047 354.435,327.101 254.500 L 327.200 72.800 200.000 72.800 L 72.800 72.800 72.899 254.500 M145.600 127.204 L 145.600 145.608 127.300 145.504 L 109.000 145.400 108.896 127.600 C 108.838 117.810,108.878 109.575,108.983 109.300 C 109.133 108.910,113.186 108.800,127.387 108.800 L 145.600 108.800 145.600 127.204 M218.400 127.200 L 218.400 145.600 200.000 145.600 L 181.600 145.600 181.600 127.200 L 181.600 108.800 200.000 108.800 L 218.400 108.800 218.400 127.200 M291.200 127.200 L 291.200 145.600 272.800 145.600 L 254.400 145.600 254.400 127.200 L 254.400 108.800 272.800 108.800 L 291.200 108.800 291.200 127.200 M145.504 199.900 L 145.400 218.200 127.200 218.200 L 109.000 218.200 108.896 199.900 L 108.792 181.600 127.200 181.600 L 145.608 181.600 145.504 199.900 M218.304 199.900 L 218.200 218.200 200.000 218.200 L 181.800 218.200 181.696 199.900 L 181.592 181.600 200.000 181.600 L 218.408 181.600 218.304 199.900 M291.104 199.900 L 291.000 218.200 272.800 218.200 L 254.600 218.200 254.496 199.900 L 254.392 181.600 272.800 181.600 L 291.208 181.600 291.104 199.900 M218.304 272.500 L 218.408 290.800 200.004 290.800 L 181.600 290.800 181.600 272.667 C 181.600 262.693,181.722 254.412,181.871 254.263 C 182.020 254.114,190.255 254.039,200.171 254.096 L 218.200 254.200 218.304 272.500 M145.600 272.604 L 145.600 290.808 127.300 290.704 L 109.000 290.600 108.896 273.000 C 108.838 263.320,108.878 255.175,108.983 254.900 C 109.133 254.510,113.186 254.400,127.387 254.400 L 145.600 254.400 145.600 272.604 M291.200 272.600 L 291.200 290.800 272.800 290.800 L 254.400 290.800 254.400 272.600 L 254.400 254.400 272.800 254.400 L 291.200 254.400 291.200 272.600 " stroke="none" fill="#ececec" fill-rule="evenodd"></path><path id="path1" d="M36.000 254.400 L 36.000 472.800 200.000 472.800 L 364.000 472.800 364.000 254.400 L 364.000 36.000 200.000 36.000 L 36.000 36.000 36.000 254.400 M327.200 254.400 L 327.200 436.400 200.000 436.400 L 72.800 436.400 72.800 254.400 L 72.800 72.400 200.000 72.400 L 327.200 72.400 327.200 254.400 M109.200 381.600 L 109.200 399.600 127.200 399.600 L 145.200 399.600 145.200 381.600 L 145.200 363.600 127.200 363.600 L 109.200 363.600 109.200 381.600 " stroke="none" fill="#231d14" fill-rule="evenodd"></path><path id="path2" d="M109.200 127.200 L 109.200 145.200 127.200 145.200 L 145.200 145.200 145.200 127.200 L 145.200 109.200 127.200 109.200 L 109.200 109.200 109.200 127.200 M182.000 199.800 L 182.000 218.000 200.000 218.000 L 218.000 218.000 218.000 199.800 L 218.000 181.600 200.000 181.600 L 182.000 181.600 182.000 199.800 M254.800 200.000 L 254.800 218.000 272.800 218.000 L 290.800 218.000 290.800 200.000 L 290.800 182.000 272.800 182.000 L 254.800 182.000 254.800 200.000 M254.584 272.600 C 254.584 282.500,254.636 286.493,254.700 281.473 C 254.763 276.453,254.763 268.353,254.700 263.473 C 254.636 258.593,254.584 262.700,254.584 272.600 M145.384 381.600 C 145.384 391.610,145.436 395.705,145.500 390.700 C 145.563 385.695,145.563 377.505,145.500 372.500 C 145.436 367.495,145.384 371.590,145.384 381.600 M254.400 381.600 L 254.400 399.600 272.600 399.600 L 290.800 399.600 290.800 381.600 L 290.800 363.600 272.600 363.600 L 254.400 363.600 254.400 381.600 " stroke="none" fill="#268cbc" fill-rule="evenodd"></path><path id="path3" d="M254.800 127.200 L 254.800 145.200 272.800 145.200 L 290.800 145.200 290.800 127.200 L 290.800 109.200 272.800 109.200 L 254.800 109.200 254.800 127.200 M182.000 272.600 L 182.000 290.800 200.000 290.800 L 218.000 290.800 218.000 272.600 L 218.000 254.400 200.000 254.400 L 182.000 254.400 182.000 272.600 M182.000 381.600 L 182.000 399.600 200.000 399.600 L 218.000 399.600 218.000 381.600 L 218.000 363.600 200.000 363.600 L 182.000 363.600 182.000 381.600 " stroke="none" fill="#d1591c" fill-rule="evenodd"></path><path id="path4" d="M73.200 381.600 L 73.200 436.000 200.000 436.000 L 326.800 436.000 326.800 381.600 L 326.800 327.200 200.000 327.200 L 73.200 327.200 73.200 381.600 M145.600 381.600 L 145.600 400.000 127.200 400.000 L 108.800 400.000 108.800 381.600 L 108.800 363.200 127.200 363.200 L 145.600 363.200 145.600 381.600 M218.400 381.600 L 218.400 400.000 200.000 400.000 L 181.600 400.000 181.600 381.600 L 181.600 363.200 200.000 363.200 L 218.400 363.200 218.400 381.600 M291.200 381.600 L 291.200 400.000 272.800 400.000 L 254.400 400.000 254.400 381.600 L 254.400 363.200 272.800 363.200 L 291.200 363.200 291.200 381.600 " stroke="none" fill="#fcfcf4" fill-rule="evenodd"></path><path id="path5" d="M136.500 72.700 C 171.425 72.756,228.575 72.756,263.500 72.700 C 298.425 72.644,269.850 72.598,200.000 72.598 C 130.150 72.598,101.575 72.644,136.500 72.700 M109.200 199.800 L 109.200 218.000 127.200 218.000 L 145.200 218.000 145.200 199.800 L 145.200 181.600 127.200 181.600 L 109.200 181.600 109.200 199.800 M109.200 272.600 L 109.200 290.800 127.200 290.800 L 145.200 290.800 145.200 272.600 L 145.200 254.400 127.200 254.400 L 109.200 254.400 109.200 272.600 M181.784 272.600 C 181.784 282.500,181.836 286.493,181.900 281.473 C 181.963 276.453,181.963 268.353,181.900 263.473 C 181.836 258.593,181.784 262.700,181.784 272.600 M218.184 272.600 C 218.184 282.500,218.236 286.493,218.300 281.473 C 218.363 276.453,218.363 268.353,218.300 263.473 C 218.236 258.593,218.184 262.700,218.184 272.600 M136.300 436.300 C 171.335 436.356,228.665 436.356,263.700 436.300 C 298.735 436.244,270.070 436.198,200.000 436.198 C 129.930 436.198,101.265 436.244,136.300 436.300 " stroke="none" fill="#d0649c" fill-rule="evenodd"></path><path id="path6" d="M182.000 127.200 L 182.000 145.200 200.000 145.200 L 218.000 145.200 218.000 127.200 L 218.000 109.200 200.000 109.200 L 182.000 109.200 182.000 127.200 M254.800 272.600 L 254.800 290.800 272.800 290.800 L 290.800 290.800 290.800 272.600 L 290.800 254.400 272.800 254.400 L 254.800 254.400 254.800 272.600 " stroke="none" fill="#38b820" fill-rule="evenodd"></path><path id="path7" d="M181.600 127.200 L 181.600 145.600 200.000 145.600 L 218.400 145.600 218.400 127.200 L 218.400 108.800 200.000 108.800 L 181.600 108.800 181.600 127.200 M254.400 127.200 L 254.400 145.600 272.800 145.600 L 291.200 145.600 291.200 127.200 L 291.200 108.800 272.800 108.800 L 254.400 108.800 254.400 127.200 M218.000 127.200 L 218.000 145.200 200.000 145.200 L 182.000 145.200 182.000 127.200 L 182.000 109.200 200.000 109.200 L 218.000 109.200 218.000 127.200 M290.800 127.200 L 290.800 145.200 272.800 145.200 L 254.800 145.200 254.800 127.200 L 254.800 109.200 272.800 109.200 L 290.800 109.200 290.800 127.200 M109.000 199.900 L 109.000 218.200 127.200 218.200 L 145.400 218.200 145.406 200.000 L 145.412 181.800 145.302 199.900 L 145.192 218.000 127.200 218.000 L 109.208 218.000 109.104 199.800 L 109.000 181.600 109.000 199.900 M181.862 254.300 C 181.760 254.465,189.922 254.600,200.000 254.600 C 210.078 254.600,218.240 254.465,218.138 254.300 C 218.036 254.135,209.874 254.000,200.000 254.000 C 190.126 254.000,181.964 254.135,181.862 254.300 M145.384 272.600 C 145.384 282.720,145.436 286.803,145.500 281.673 C 145.563 276.542,145.563 268.262,145.500 263.273 C 145.436 258.283,145.384 262.480,145.384 272.600 M108.984 272.600 C 108.984 282.500,109.036 286.493,109.100 281.473 C 109.163 276.453,109.163 268.353,109.100 263.473 C 109.036 258.593,108.984 262.700,108.984 272.600 M181.600 381.600 L 181.600 400.000 200.000 400.000 L 218.400 400.000 218.400 381.600 L 218.400 363.200 200.000 363.200 L 181.600 363.200 181.600 381.600 M218.000 381.600 L 218.000 399.600 200.000 399.600 L 182.000 399.600 182.000 381.600 L 182.000 363.600 200.000 363.600 L 218.000 363.600 218.000 381.600 " stroke="none" fill="#f0c0b0" fill-rule="evenodd"></path><path id="path8" d="M108.983 109.300 C 108.878 109.575,108.838 117.810,108.896 127.600 L 109.000 145.400 127.300 145.504 L 145.600 145.608 145.600 127.204 L 145.600 108.800 127.387 108.800 C 113.186 108.800,109.133 108.910,108.983 109.300 M145.200 127.200 L 145.200 145.200 127.200 145.200 L 109.200 145.200 109.200 127.200 L 109.200 109.200 127.200 109.200 L 145.200 109.200 145.200 127.200 M181.800 199.900 L 181.800 218.200 200.000 218.200 L 218.200 218.200 218.206 200.000 L 218.212 181.800 218.102 199.900 L 217.992 218.000 200.000 218.000 L 182.008 218.000 181.904 199.800 L 181.800 181.600 181.800 199.900 M254.496 199.900 L 254.600 218.200 272.800 218.200 L 291.000 218.200 291.104 199.900 L 291.208 181.600 272.800 181.600 L 254.392 181.600 254.496 199.900 M290.800 200.000 L 290.800 218.000 272.800 218.000 L 254.800 218.000 254.800 200.000 L 254.800 182.000 272.800 182.000 L 290.800 182.000 290.800 200.000 M290.984 272.600 C 290.984 282.720,291.036 286.803,291.100 281.673 C 291.163 276.542,291.163 268.262,291.100 263.273 C 291.036 258.283,290.984 262.480,290.984 272.600 M108.983 363.700 C 108.878 363.975,108.838 372.210,108.896 382.000 L 109.000 399.800 127.200 399.806 L 145.400 399.813 127.300 399.702 L 109.200 399.592 109.200 381.600 L 109.200 363.608 127.300 363.500 L 145.400 363.392 127.287 363.296 C 113.095 363.221,109.133 363.308,108.983 363.700 M272.600 363.504 L 290.800 363.608 290.800 381.600 L 290.800 399.592 272.700 399.702 L 254.600 399.812 272.800 399.806 L 291.000 399.800 291.000 381.600 L 291.000 363.400 272.700 363.400 L 254.400 363.400 272.600 363.504 " stroke="none" fill="#b0c0f4" fill-rule="evenodd"></path></g></svg>